<svg xmlns="http://www.w3.org/2000/svg" viewBox="0 0 480 360" role="img" aria-label="Illustration of utility tool cards">
  <rect width="480" height="360" rx="24" fill="#0a2f1f" fill-opacity="0.08"/>
  <g>
    <rect x="40" y="60" width="160" height="110" rx="16" fill="#ffffff" stroke="#0e6b3f" stroke-width="2"/>
    <text x="58" y="102" font-family="monospace" font-size="22" fill="#0a8f4a">&lt;/&gt;</text>
    <rect x="58" y="118" width="120" height="8" rx="4" fill="#c9f7dd"/>
    <rect x="58" y="135" width="90" height="8" rx="4" fill="#c9f7dd"/>
  </g>
  <g>
    <rect x="230" y="40" width="150" height="110" rx="16" fill="#ffffff" stroke="#12e878" stroke-width="2"/>
    <circle cx="262" cy="82" r="16" fill="none" stroke="#0bbf61" stroke-width="3"/>
    <path d="M262 62v-8M262 110v-8M242 82h-8M290 82h-8M249 69l-6-6M275 95l6 6M275 69l6-6M249 95l-6 6" stroke="#0bbf61" stroke-width="2" stroke-linecap="round"/>
    <rect x="296" y="72" width="66" height="8" rx="4" fill="#c9f7dd"/>
    <rect x="296" y="90" width="46" height="8" rx="4" fill="#c9f7dd"/>
  </g>
  <g>
    <rect x="120" y="190" width="170" height="120" rx="16" fill="#ffffff" stroke="#4dffa1" stroke-width="2"/>
    <rect x="140" y="212" width="16" height="16" fill="#0a8f4a"/>
    <rect x="160" y="212" width="16" height="16" fill="#12e878"/>
    <rect x="180" y="212" width="16" height="16" fill="#0a8f4a"/>
    <rect x="140" y="232" width="16" height="16" fill="#12e878"/>
    <rect x="180" y="232" width="16" height="16" fill="#0a8f4a"/>
    <rect x="140" y="252" width="16" height="16" fill="#0a8f4a"/>
    <rect x="160" y="252" width="16" height="16" fill="#12e878"/>
    <rect x="180" y="252" width="16" height="16" fill="#0a8f4a"/>
    <rect x="210" y="224" width="60" height="8" rx="4" fill="#c9f7dd"/>
    <rect x="210" y="242" width="40" height="8" rx="4" fill="#c9f7dd"/>
  </g>
  <g>
    <rect x="300" y="180" width="140" height="110" rx="16" fill="#ffffff" stroke="#0e6b3f" stroke-width="2"/>
    <rect x="322" y="202" width="30" height="38" rx="4" fill="none" stroke="#0bbf61" stroke-width="3"/>
    <path d="M328 202v-10a8 8 0 0116 0v10" fill="none" stroke="#0bbf61" stroke-width="3"/>
    <rect x="364" y="210" width="58" height="8" rx="4" fill="#c9f7dd"/>
    <rect x="364" y="228" width="44" height="8" rx="4" fill="#c9f7dd"/>
  </g>
</svg>
